<svg version="1.2" xmlns="http://www.w3.org/2000/svg" viewBox="0 0 374 381" width="374" height="381">
	<title>ComfyUI_00040_-svg</title>
	<style>
		.s0 { fill: #f4f4e8 } 
		.s1 { fill: #fe6a6a } 
		.s2 { fill: #16161a } 
		.s3 { fill: #4dcdc4 } 
	</style>
	<path class="s0" d="m254.8 26.1q1.8 0.7 3.7 1.5 1.9 0.8 3.7 1.6 1.9 0.8 3.7 1.6 1.8 0.9 3.6 1.8 1.8 0.9 3.6 1.8 1.8 0.9 3.5 1.9 1.8 1 3.5 2 1.7 1 3.5 2.1 1.7 1.1 3.4 2.2 1.6 1.1 3.3 2.2 1.6 1.1 3.3 2.3 1.6 1.2 3.2 2.4 1.6 1.2 3.2 2.5 1.6 1.2 3.1 2.5 1.5 1.3 3 2.7 1.6 1.3 3 2.7 1.5 1.3 3 2.7 1.4 1.4 2.8 2.8 1.4 1.5 2.8 2.9 1.4 1.5 2.7 3 1.4 1.5 2.7 3 1.3 1.6 2.6 3.1 1.2 1.6 2.5 3.2 1.2 1.6 2.4 3.2 1.2 1.6 2.3 3.3 1.2 1.6 2.3 3.3 1.1 1.6 2.2 3.3 1.1 1.7 2.1 3.5 1 1.7 2 3.4 1 1.8 2 3.6 0.9 1.7 1.9 3.5 0.9 1.8 1.7 3.6 1 2 1.9 4.1 1 2 1.9 4.1 0.8 2 1.7 4.1 0.8 2.1 1.6 4.2 0.8 2.1 1.5 4.2 0.7 2.1 1.4 4.3 0.7 2.1 1.3 4.3 0.6 2.1 1.2 4.3 0.5 2.1 1 4.3 0.6 2.2 1 4.4 0.5 2.2 0.9 4.4 0.4 2.2 0.7 4.4 0.4 2.2 0.7 4.4 0.3 2.3 0.5 4.5 0.3 2.2 0.5 4.4 0.2 2.3 0.3 4.5 0.1 2.3 0.2 4.5 0.1 2.2 0.1 4.5 0 2.2 0 4.4 0 2.3-0.1 4.5-0.1 2.3-0.3 4.5-0.1 2.2-0.3 4.5-0.2 2.2-0.5 4.4-0.2 2.2-0.5 4.5-0.3 2.2-0.7 4.4-0.3 2.2-0.8 4.4-0.4 2.2-0.8 4.4-0.5 2.2-1 4.4-0.6 2.1-1.1 4.3-0.6 2.2-1.3 4.3-0.6 2.2-1.3 4.3-0.7 2.1-1.4 4.3-0.7 2-1.5 4.1-0.8 2-1.6 4-0.8 2.1-1.7 4.1-0.9 2-1.8 3.9-0.9 2-1.9 4-0.9 1.9-2 3.9-1 1.9-2 3.8-1.1 1.9-2.2 3.8-1.1 1.9-2.3 3.7-1.2 1.9-2.4 3.7-1.2 1.8-2.4 3.6-1.3 1.8-2.6 3.6-1.3 1.7-2.6 3.5-1.3 1.7-2.7 3.4-1.4 1.7-2.8 3.3-1.5 1.7-2.9 3.3-1.5 1.6-3 3.2-1.5 1.6-3 3.2-1.6 1.5-3.1 3-1.6 1.5-3.2 3-1.7 1.5-3.3 2.9-1.7 1.4-3.3 2.8-1.7 1.4-3.5 2.8-1.7 1.3-3.4 2.6-1.8 1.3-3.6 2.6-1.8 1.2-3.6 2.4-1.8 1.3-3.6 2.4-1.9 1.2-3.8 2.3-1.8 1.1-3.7 2.2-1.9 1.1-3.9 2.1-1.9 1.1-3.8 2-2 1-4 2c-40.2 19.3-91.3 22.9-133.4 7.9q-2.1-0.7-4.2-1.5-2.1-0.8-4.1-1.6-2.1-0.9-4.1-1.8-2.1-0.8-4.1-1.8-2-0.9-4-1.9-2-1-3.9-2-2-1-3.9-2.1-2-1.1-3.9-2.2-1.9-1.1-3.8-2.3-1.8-1.2-3.7-2.4-1.9-1.2-3.7-2.5-1.8-1.3-3.6-2.6-1.8-1.3-3.5-2.6-1.8-1.4-3.5-2.8-1.7-1.4-3.4-2.8-1.7-1.5-3.4-2.9-1.6-1.5-3.2-3-1.7-1.6-3.2-3.1-1.6-1.6-3.1-3.2-1.6-1.6-3.1-3.2-1.5-1.6-2.9-3.3-1.5-1.7-2.9-3.4-1.4-1.7-2.8-3.4-1.4-1.8-2.7-3.6-1.3-1.7-2.6-3.5-1.3-1.9-2.5-3.7-1.3-1.8-2.5-3.7-1.2-1.9-2.3-3.8-1.2-1.9-2.3-3.8-1.1-1.9-2.1-3.9-1.1-1.9-2.1-3.9-1-2-1.9-4c-20.3-42.4-22.1-93.7-6.4-137.7q0.8-2.1 1.5-4.1 0.8-2 1.7-4 0.8-2 1.7-4 0.9-2 1.8-4 1-1.9 1.9-3.9 1-1.9 2.1-3.8 1-2 2.1-3.8 1-1.9 2.2-3.8 1.1-1.9 2.3-3.7 1.1-1.8 2.3-3.6 1.2-1.8 2.5-3.6 1.3-1.8 2.6-3.5 1.3-1.8 2.6-3.5 1.3-1.7 2.7-3.4 1.4-1.7 2.8-3.3 1.5-1.7 2.9-3.3 1.5-1.6 3-3.2 1.5-1.5 3.1-3.1 1.5-1.5 3.1-3 1.6-1.5 3.2-2.9 1.6-1.5 3.2-2.9 1.7-1.4 3.4-2.8 1.7-1.4 3.4-2.7 1.7-1.4 3.5-2.6 1.7-1.3 3.5-2.6 1.8-1.2 3.6-2.4 1.8-1.2 3.6-2.4 1.9-1.2 3.7-2.3 1.9-1.1 3.8-2.2 1.9-1 3.8-2 2-1.1 3.9-2 1.9-1 3.9-1.9 2-0.9 3.9-1.8 2-0.9 4-1.7 2-0.8 4-1.6 2-0.7 4.1-1.4 2-0.8 4-1.4 2.1-0.7 4.2-1.3 2-0.6 4.1-1.2 2.1-0.6 4.2-1.1 2.1-0.5 4.2-1 2.1-0.4 4.2-0.8 2.1-0.5 4.2-0.8 2.1-0.4 4.3-0.7 2.1-0.3 4.2-0.6 2.2-0.2 4.3-0.4 2.2-0.2 4.3-0.4 2.2-0.1 4.3-0.2 2.2-0.2 4.3-0.2 2.2-0.1 4.3-0.1 2.2 0 4.3 0.1 2.2 0.1 4.3 0.2 2.2 0.1 4.3 0.2 2.2 0.2 4.3 0.4 2.2 0.2 4.3 0.5 2.2 0.2 4.3 0.5 2.1 0.4 4.2 0.7 2.2 0.4 4.3 0.8 2.1 0.4 4.2 0.9 2.1 0.5 4.2 1 2.1 0.5 4.2 1.1 2 0.5 4.1 1.1 2.1 0.7 4.1 1.3 2.1 0.7 4.1 1.4c-2.3 7.2-4.5 14.4-7.1 21.4-1.3 3.9-2.5 7.9-3.9 11.7 2.2 1.4 4.5 2.8 6.5 4.5 1.7-3.6 2.9-7.6 4.1-11.5z"/>
	<path class="s1" d="m246.7 49.2c6.6 4.3 10.6 10.3 12.3 17.9q0.2 0.9 0.4 1.7 0.1 0.8 0.2 1.7 0.1 0.8 0.2 1.7 0.1 0.8 0.1 1.7 0 0.8 0 1.7 0 0.8-0.1 1.7 0 0.8-0.2 1.7-0.1 0.8-0.2 1.7-0.1 0.8-0.3 1.6-0.2 0.9-0.4 1.7-0.3 0.8-0.5 1.6-0.3 0.8-0.6 1.6-0.3 0.8-0.7 1.6-0.3 0.7-0.7 1.5-0.4 0.8-0.8 1.5-0.4 0.7-0.9 1.5c-4.2 6.6-10.8 12-18.6 13.6-4 0.9-8.9 0.5-12.6 2.1 1.9-8.6 5.8-17.6 8.6-25.9 4.3-2 9-4.1 11.3-8.5 2.4-4.6 0.9-9.3-0.6-13.9 1.7-3.6 2.9-7.6 4.1-11.5z"/>
	<path class="s1" d="m219.8 108.9c-7.1-6.4-14-6.1-20-15.8q-0.4-0.7-0.8-1.5-0.4-0.7-0.8-1.4-0.3-0.8-0.7-1.6-0.3-0.7-0.6-1.5-0.3-0.8-0.5-1.6-0.3-0.8-0.5-1.6-0.2-0.8-0.4-1.6-0.2-0.9-0.3-1.7-0.1-0.8-0.2-1.6-0.1-0.9-0.1-1.7-0.1-0.8-0.1-1.7 0-0.8 0.1-1.7 0-0.8 0.1-1.6 0.1-0.9 0.2-1.7 0.1-0.8 0.3-1.6 0.1-0.9 0.4-1.7 0.2-0.8 0.4-1.5 0.2-0.8 0.5-1.6 0.3-0.8 0.6-1.5 0.3-0.8 0.7-1.5 0.3-0.8 0.7-1.5 0.4-0.7 0.8-1.4 0.4-0.7 0.9-1.4 0.4-0.7 0.9-1.3 0.5-0.7 1-1.3 0.6-0.6 1.1-1.2 0.6-0.6 1.1-1.2 0.6-0.6 1.2-1.1 0.6-0.6 1.3-1.1 0.6-0.5 1.3-1 0.6-0.5 1.3-0.9 0.7-0.5 1.4-0.9c9.4-5.6 18.7-5.1 28.9-2.4-1.3 3.9-2.5 7.9-3.9 11.7 2.2 1.4 4.5 2.8 6.5 4.5 1.5 4.6 3 9.3 0.6 13.9-2.3 4.4-7 6.5-11.3 8.5l-2.9-0.8c-3.4 8.5-7.3 17.6-9.2 26.6z"/>
	<path class="s2" d="m254 3c6.3 1 17 3 21.5 7.9 0.5 1.2 0.4 2.1-0.1 3.3-0.5 1.3-1.4 2.6-2.1 3.8q-7.1-2.2-13.9-5.2l-4.6 13.3-8.1 23.1c-1.2 3.9-32.9 79.4-34.7 83-2-1.7 0.7 0.2-1.6-1.2 1.5-3.9 28.3-82.6 29.6-86.5 2.6-7 4.8-14.2 7.1-21.4 2-6.8 4-13.7 6.9-20.1zm-34.2 105.9c29.1 0.7 39.3-2.6 48.8 3.1 4 2.4 5 5.9 6.1 10.1-0.4 1.7-0.9 3.3-1.6 4.9-2.2 4.9-5.5 9.4-8.4 14l-16.2 25.5c-7.6 12-23 39.8-31.9 48.2-6 5.5-13.6 8.3-21.1 11.1 0 28.6-0.5 57.2 0 85.8 2.9 1.4 5.4 2.3 8.6 2.7 5.6 0.8 23-1 26.4 3.3 1.2 1.6 1.3 4.4 0.8 6.2-0.5 2-1.8 3.7-3.6 4.6-1.5 0.8-3.4 0.8-5 0.9-12.7 0.7-25.5-0.1-38.2-0.1-9.2-0.1-27.2 1.9-35.2-0.7-1.8-0.6-3.3-1.8-4-3.5-0.7-1.6-0.8-4.2 0-5.7 3.7-7 19.4-4.3 26.2-4.8 3.3-0.2 6.2-1 9.4-2.1 1.2-11 0.5-22.3 0.5-33.4v-53.7c-2.8-0.6-5.6-1.7-8.3-2.7-6-2.4-11.2-6-15.4-10.9-5.2-5.9-9.2-13-13.4-19.7l-18-28.9c-6.8-10.7-17.1-23.7-21.9-35-1.5-3.6-2.2-7-0.5-10.7 1.3-2.9 4-5.8 7.1-6.8 7.7-2.7 108.6-1.7 108.8-1.7z"/>
	<path class="s1" d="m258.7 123.6c-10 17.3-21.1 34-31.8 50.9-5.3 8.3-9.8 17.4-15.9 25.2-2.5 3.2-5.4 6-9 8-6.3 3.6-14.3 4.4-21.3 2.3-5.2-1.5-9.8-4.5-13.4-8.4-7.4-8.1-12.5-19.3-18.3-28.5-10.3-16.4-21.2-32.4-30.5-49.4 9.8 0.5 19.7 0.4 29.5 0.5 18.8 0.2 103.8-0.6 110.7-0.6z"/>
	<path id="Layer copy" class="s2" d="m254 3c6.3 1 17 3 21.5 7.9 0.5 1.2 0.4 2.1-0.1 3.3-0.5 1.3-1.4 2.6-2.1 3.8q-7.1-2.2-13.9-5.2l-4.6 13.3-9.2 23.1c-0.5 3.4-41.1 112.1-42.9 115.8-2-1.8 1 1.5-1.3 0-3.4-2.3 37.3-116.6 38.6-120.5 2.6-7 4.8-14.2 7.1-21.4 2-6.8 4-13.7 6.9-20.1z"/>
	<path class="s3" d="m229 82.3q-0.4-0.1-0.7-0.2c-3.7-1-7.2-3.4-9-6.7-1.9-3.4-2.1-7.3-1-10.9 1.2-3.6 3.8-6.8 7.3-8.4 3.5-1.7 7-1.2 10.5 0.1 2.2 1.4 4.5 2.8 6.5 4.5 1.5 4.6 3 9.3 0.6 13.9-2.3 4.4-7 6.5-11.3 8.5z"/>
	<path class="s3" d="m204.5 123.6c3-0.1 6-0.2 8.9-0.1 1 1 1.8 2.3 3.1 2.6 2.9 2.7 5.2 6.6 5.7 10.5 0.4 3.4-1.1 7.4-3.2 9.9-2.4 2.8-5.9 4.4-9.5 4.5-4 0.2-7.9-1.5-10.6-4.3-2.5-2.4-4-5.6-3.9-9.1 0.1-6.9 4.4-9.3 8.8-13.4z"/>
	<path class="s3" d="m194 151.1q2.1 0.1 4.2 0.7c3.7 1.1 7 4.2 8.7 7.6 6.5 12.3-5.9 13.8-8.4 19.8-1.4 3.3 0.5 6.7-0.7 9.9-1.5 3.8-6.7 5.8-10.2 7.2-1.2-0.1-2.5-0.2-3.7-0.4-3.8-0.8-7.4-2.9-9.5-6.2q-0.4-0.5-0.6-1.1-0.3-0.6-0.6-1.2-0.2-0.6-0.4-1.2-0.1-0.6-0.2-1.2-0.1-0.6-0.2-1.3 0-0.6 0-1.2 0-0.7 0.1-1.3 0.1-0.6 0.2-1.3c1.3-4.9 4.8-7.5 9-9.9-0.6-4.3-1-8.5 1.4-12.5 2.4-3.9 6.6-5.4 10.9-6.4z"/>
</svg>